<svg xmlns="http://www.w3.org/2000/svg" viewBox="0 0 32 32">
  <circle cx="16" cy="16" r="15" fill="#2c5f8a"/>
  <g transform="translate(4,3) scale(1)" fill="none" stroke="#faf8f3" stroke-linecap="round" stroke-linejoin="round">
    <path d="M10.5 5.5C10.5 4 11.5 3 12 3C12.5 3 13.5 4 13.5 5.5C13.5 4 14.8 3.2 15.5 3.5C16.2 3.8 16 5 15 6L12 9L9 6C8 5 7.8 3.8 8.5 3.5C9.2 3.2 10.5 4 10.5 5.5Z" fill="#faf8f3" stroke-width="0.8"/>
    <path d="M9.5 8.5C8.5 10 7 13 6.5 15.5C6 17.5 6.5 19 7.5 20C8.2 20.7 9 21 10 21" stroke-width="1.6"/>
    <path d="M14.5 8.5C15.5 10 17 13 17.5 15.5C18 17.5 17.5 19 16.5 20C15.8 20.7 15 21 14 21" stroke-width="1.6"/>
    <path d="M10 21C10 20 10.5 18.5 11 17.5" stroke-width="1.2"/>
    <path d="M14 21C14 20 13.5 18.5 13 17.5" stroke-width="1.2"/>
    <path d="M7.5 20C8.5 21.5 10 22 12 22C14 22 15.5 21.5 16.5 20" stroke-width="1.3"/>
  </g>
</svg>
